<?xml version="1.0" encoding="iso-8859-1"?>
<!-- Generator: Adobe Illustrator 19.0.0, SVG Export Plug-In . SVG Version: 6.00 Build 0)  -->
<svg version="1.1" id="Capa_1" xmlns="http://www.w3.org/2000/svg"
	xmlns:xlink="http://www.w3.org/1999/xlink" x="0px" y="0px"
	viewBox="0 0 495.789 495.789" style="enable-background:new 0 0 495.789 495.789;"
	xml:space="preserve" fill="#3e362e">
<g>
	<g>
		<path d="M421.148,207.955c-0.168-0.101-0.344-0.19-0.525-0.265l-3.48-1.76c-9.609-4.951-21.269-3.524-29.4,3.6
			c-14.929,12.245-35.811,14.162-52.72,4.84c-2.064-0.789-4.376,0.245-5.165,2.308c-0.609,1.592-0.141,3.396,1.165,4.492
			c8.049,4.757,17.251,7.207,26.6,7.08c1.76,0,3.56,0,5.32-0.24c7.075-0.601,13.971-2.542,20.32-5.72c0,0,0.28,0,0.4,0
			c5.899-0.989,11.874,1.273,15.64,5.92c0.755,1.007,1.941,1.6,3.2,1.6c0.865,0,1.708-0.281,2.4-0.8
			c1.767-1.325,2.125-3.833,0.8-5.6c-3.02-3.955-7.224-6.842-12-8.24c5.619-4.559,13.398-5.374,19.84-2.08l3.48,1.72
			c1.893,1.139,4.351,0.528,5.49-1.365S423.041,209.094,421.148,207.955z"/>
	</g>
</g>
<g>
	<g>
		<path d="M417.183,150.57c-43.72-12-80-4.48-90.08,18.48c-0.895,2.02,0.016,4.383,2.035,5.278c0.002,0.001,0.003,0.001,0.005,0.002
			c0.503,0.225,1.049,0.334,1.6,0.32c1.572-0.003,2.996-0.927,3.64-2.36c8.4-18.88,41.56-24.64,80.68-14
			c2.132,0.585,4.335-0.668,4.92-2.8C420.569,153.358,419.315,151.155,417.183,150.57z"/>
	</g>
</g>
<g>
	<g>
		<path d="M253.978,215.709c-0.011-0.02-0.023-0.039-0.034-0.059c-1.167-1.857-3.611-2.428-5.48-1.28
			c-16.976,9.373-37.961,7.389-52.88-5c-8.129-7.011-19.706-8.373-29.24-3.44l-3.48,1.76c-2.039,0.849-3.004,3.191-2.155,5.23
			c0.849,2.039,3.191,3.004,5.23,2.155c0.181-0.075,0.357-0.164,0.525-0.265l3.48-1.72c6.489-3.365,14.36-2.53,20,2.12
			c-4.764,1.377-8.958,4.253-11.96,8.2c-1.326,1.767-0.967,4.274,0.8,5.6c0.692,0.519,1.535,0.8,2.4,0.8
			c1.259,0,2.445-0.593,3.2-1.6c3.743-4.606,9.66-6.863,15.52-5.92c0,0,0.24,0,0.36,0c6.362,3.182,13.272,5.124,20.36,5.72
			c1.76,0,3.56,0.24,5.32,0.24c9.336,0.132,18.528-2.318,26.56-7.08C254.419,220.069,255.079,217.624,253.978,215.709z"/>
	</g>
</g>
<g>
	<g>
		<path d="M256.385,169.054c-0.001-0.002-0.001-0.003-0.002-0.005c-10.16-22.96-46.36-30.36-90.08-18.48
			c-2.132,0.585-3.385,2.788-2.8,4.92c0.585,2.132,2.788,3.385,4.92,2.8c39.12-10.64,72.28-4.88,80.64,14
			c0.65,1.447,2.094,2.372,3.68,2.36c0.55,0.004,1.094-0.105,1.6-0.32C256.364,173.437,257.278,171.075,256.385,169.054z"/>
	</g>
</g>
<g>
	<g>
		<path d="M336.663,344.81c-6.073-10.523-15.662-18.568-27.08-22.72c-4.811-1.721-10.141-1.193-14.52,1.44
			c-1.964,1.097-4.356,1.097-6.32,0c-4.367-2.663-9.705-3.207-14.52-1.48c-11.418,4.152-21.007,12.197-27.08,22.72
			c-0.715,1.238-0.715,2.762,0,4c9.29,15.928,26.321,25.744,44.76,25.8c18.431-0.047,35.46-9.848,44.76-25.76
			C337.378,347.572,337.378,346.047,336.663,344.81z M267.756,359.423c-5.026-3.294-9.319-7.587-12.613-12.613
			c5.146-7.939,12.745-13.979,21.64-17.2c2.55-0.901,5.37-0.607,7.68,0.8c4.505,2.601,10.055,2.601,14.56,0
			c2.31-1.407,5.13-1.701,7.68-0.8c8.889,3.232,16.485,9.269,21.64,17.2C315.096,367.023,287.97,372.671,267.756,359.423z"/>
	</g>
</g>
<g>
	<g>
		<path d="M310.787,291.89c-1.498-1.283-3.706-1.283-5.204,0c-7.634,7.644-20.018,7.652-27.662,0.018
			c-0.006-0.006-0.012-0.012-0.018-0.018c-1.678-1.437-4.203-1.242-5.64,0.436c-1.283,1.498-1.283,3.706,0,5.204
			c10.736,10.758,28.161,10.777,38.919,0.041c0.014-0.014,0.027-0.027,0.041-0.041C312.66,295.852,312.465,293.327,310.787,291.89z"
			/>
	</g>
</g>
<g>
	<g>
		<path d="M419.223,112.69c-12.96-10.28-56-43.24-68.48-52.72c1.68-1.92,3.32-4,4.88-6c9.12-12,18.08-36,18.44-36.96
			c0.592-2.128-0.654-4.334-2.782-4.925c-1.885-0.524-3.872,0.392-4.698,2.165c0,0.24-8.92,24-17.32,34.88
			c-23.4,30.52-59.12,50.52-106.2,59l-88.28,18.24c-60.587,12.463-99.6,71.681-87.138,132.269
			c3.515,17.087,10.972,33.117,21.778,46.811c0.092,0.097,0.173,0.204,0.24,0.32c7.56,8.92,15.44,17.84,23.04,26.4
			c39.52,44.64,76.84,86.8,55.28,121.4c-3.12,5-18.16,19.12-36.44,18.08c-2.209-0.121-4.099,1.571-4.22,3.78
			c-0.122,2.209,1.571,4.099,3.78,4.22c0.84,0,1.68,0,2.52,0c16.328-0.634,31.472-8.692,41.12-21.88c24.76-39.68-14.52-84-56-130.92
			c-7.6-8.56-15.44-17.4-23-26.4c-35.541-45.121-27.775-110.51,17.346-146.052c8.083-6.367,17.065-11.499,26.654-15.228v124
			c0.069,32.853,13.704,64.219,37.68,86.68l73.64,68.72c9.031,8.401,20.906,13.074,33.24,13.08h14.88
			c12.432,0.014,24.403-4.706,33.48-13.2l46.2-42.8v18.04c-0.06,31.713,9.8,62.651,28.2,88.48c0.755,1.06,1.978,1.687,3.28,1.68
			c0.819,0.02,1.621-0.233,2.28-0.72c1.795-1.273,2.224-3.758,0.96-5.56c-17.446-24.529-26.789-53.899-26.72-84v-23
			c-0.019-0.708-0.227-1.398-0.6-2l20-18.68c1.613-1.513,1.693-4.047,0.18-5.66c-1.513-1.613-4.047-1.693-5.66-0.18l-73.6,68.72
			c-7.592,7.103-17.603,11.051-28,11.04h-14.88c-10.397,0.011-20.408-3.937-28-11.04l-73.64-68.72
			c-22.373-20.941-35.097-50.196-35.16-80.84V136.49c2.92-0.88,5.88-1.68,8.88-2.28l88.24-18.2c42.64-8,76.44-24.68,100.72-50.08
			c11.64,8.88,56,42.64,68.92,53.04c8.018,6.381,15.363,13.565,21.92,21.44c-0.136,0.345-0.217,0.71-0.24,1.08v121.72
			c0,2.209,1.791,4,4,4c2.209,0,4-1.791,4-4V150.65c32.208,46.672,36.66,107.112,11.64,158c-0.949,1.978-0.129,4.351,1.84,5.32
			c0.537,0.3,1.145,0.452,1.76,0.44c1.515-0.012,2.893-0.879,3.56-2.24C496.623,243.65,478.303,159.65,419.223,112.69z"/>
	</g>
</g>
<g>
	<g>
		<path d="M97.103,35.25c-1.736-1.352-4.238-1.048-5.6,0.68c-24.046,31.9-33.437,72.501-25.84,111.72c0.334,1.94,2.031,3.349,4,3.32
			h0.72c2.175-0.385,3.626-2.461,3.241-4.637c0-0.001,0-0.002-0.001-0.003c-7.276-36.995,1.507-75.34,24.16-105.48
			C99.136,39.114,98.832,36.612,97.103,35.25z"/>
	</g>
</g>
<g>
	<g>
		<path d="M95.318,118.136c-0.005-0.002-0.009-0.004-0.014-0.006c-2.042-0.842-4.381,0.131-5.223,2.173
			c-0.02,0.049-0.039,0.098-0.057,0.147c-3.969,9.497-6.958,19.375-8.92,29.48c-0.416,2.164,0.997,4.257,3.16,4.68
			c0.252,0.039,0.508,0.039,0.76,0c1.943,0.035,3.631-1.332,4-3.24c1.864-9.594,4.692-18.974,8.44-28
			C98.316,121.332,97.356,118.989,95.318,118.136z"/>
	</g>
</g>
<g>
	<g>
		<path d="M294.558,52.187c-1.383-1.723-3.901-1.998-5.623-0.614c-0.123,0.099-0.24,0.205-0.351,0.318
			c-15.281,13.502-34.047,22.441-54.16,25.8c-2.172,0.403-3.606,2.49-3.203,4.663c0.001,0.006,0.002,0.012,0.003,0.017
			c0.369,1.908,2.057,3.275,4,3.24l0.68-0.04c21.569-3.621,41.683-13.241,58.04-27.76C295.666,56.427,295.941,53.909,294.558,52.187
			z"/>
	</g>
</g>
<g>
	<g>
		<path d="M314.423,24.53c-1.922-1.105-4.375-0.442-5.48,1.48c-2.268,3.991-4.779,7.838-7.52,11.52
			c-1.325,1.767-0.967,4.275,0.8,5.6c0.697,0.505,1.539,0.772,2.4,0.76c1.273,0.044,2.491-0.52,3.28-1.52
			c2.932-3.942,5.604-8.071,8-12.36C317.008,28.088,316.345,25.634,314.423,24.53z"/>
	</g>
</g>
<g>
	<g>
		<path d="M84.623,379.41l-38.36-16.68c-20.72-9.12-33.96-23.96-38.36-42.84c-0.497-2.154-2.646-3.497-4.8-3
			c-2.154,0.497-3.497,2.646-3,4.8c3.48,14.96,13.72,35.48,42.88,48.4l38.4,16.72c41.28,17.96,60.56,38.88,57.32,62.16
			c-0.306,2.188,1.219,4.21,3.407,4.516c0.011,0.002,0.022,0.003,0.033,0.004h0.56c2.021,0.017,3.737-1.476,4-3.48
			C150.463,422.73,129.583,398.97,84.623,379.41z"/>
	</g>
</g>
<g>
	<g>
		<path d="M403.103,268.21c-1.237-1.834-3.726-2.317-5.56-1.08c-1.2,0.84-2.4,1.68-3.56,2.56c-1.754,1.338-2.094,3.843-0.76,5.6
			c0.764,0.992,1.948,1.569,3.2,1.56c0.865,0,1.708-0.281,2.4-0.8c1.04-0.8,2.12-1.56,3.2-2.28
			C403.857,272.533,404.341,270.044,403.103,268.21z"/>
	</g>
</g>
<g>
	<g>
		<path d="M448.663,354.25l11-12l29.4,27.52c1.624,1.502,4.158,1.404,5.66-0.22c1.502-1.624,1.404-4.158-0.22-5.66l-30.6-28.24
			l-21.76-24.36l-21.12-64c-0.572-1.701-2.207-2.814-4-2.72c-38.826,3.234-68.743,35.6-68.92,74.56c-0.055,1.883,1.211,3.549,3.04,4
			l65.04,16l25.92,20l46.96,43.64c0.738,0.691,1.709,1.076,2.72,1.08c2.209-0.008,3.994-1.805,3.986-4.014
			c-0.004-1.102-0.462-2.153-1.266-2.906L448.663,354.25z M416.623,331.01l-43.68-10.8c1.735-12.656,7.082-24.545,15.4-34.24
			c1.447-1.679,1.259-4.213-0.42-5.66c-1.679-1.447-4.213-1.259-5.66,0.42c-9.114,10.653-15.046,23.655-17.12,37.52l-8.96-2.2
			c1.61-32.394,26.128-59.015,58.28-63.28l19.64,59.44l-4.44,4.76l-7.24-21.92c-0.696-2.099-2.961-3.236-5.06-2.54
			s-3.236,2.961-2.54,5.06l8.64,26.08L416.623,331.01z M423.903,334.97l14.72-16l15.6,17.44l-11.8,12.84L423.903,334.97z"/>
	</g>
</g>
<g>
</g>
<g>
</g>
<g>
</g>
<g>
</g>
<g>
</g>
<g>
</g>
<g>
</g>
<g>
</g>
<g>
</g>
<g>
</g>
<g>
</g>
<g>
</g>
<g>
</g>
<g>
</g>
<g>
</g>
</svg>